# AST/ASF file generated using VICON BodyLanguage
# -----------------------------------------------
:version 1.10
:name VICON
:units
  mass 1.0
  length 0.45
  angle deg
:documentation
   .ast/.asf automatically generated from VICON data using
   VICON BodyBuilder and BodyLanguage model FoxedUp or BRILLIANT.MOD
:root
   order TX TY TZ RX RY RZ
   axis XYZ
   position 0 0 0  
   orientation 0 0 0 
:bonedata
  begin
     id 1 
     name lhipjoint
     direction 0.643824 -0.71708 0.266994 
     length 2.52133 
     axis 0 0 0  XYZ
  end
  begin
     id 2 
     name lfemur
     direction 0.34202 -0.939693 0  
     length 7.51824  
     axis 0 0 20  XYZ
    dof rx ry rz
    limits (-160.0 20.0)
           (-70.0 70.0)
           (-60.0 70.0)
  end
  begin
     id 3 
     name ltibia
     direction 0.34202 -0.939693 0   
     length 7.3685   
     axis 0 0 20   XYZ
    dof rx
    limits (-10.0 170.0)
  end
  begin
     id 4 
     name lfoot
     direction 0.105419 -0.289636 0.951314   
     length 2.20972   
     axis -90 7.62852e-016 20   XYZ
    dof rx rz
    limits (-45.0 90.0)
           (-70.0 20.0)
  end
  begin
     id 5 
     name ltoes
     direction 1.53549e-011 -4.21833e-011 1   
     length 1.10139   
     axis -90 7.62852e-016 20   XYZ
    dof rx
    limits (-90.0 20.0)
  end
  begin
     id 6 
     name rhipjoint
     direction -0.608823 -0.743445 0.276811   
     length 2.43192  
     axis 0 0 0  XYZ 
  end
  begin
     id 7 
     name rfemur
     direction -0.34202 -0.939693 0   
     length 7.69715   
     axis 0 0 -20   XYZ
    dof rx ry rz
    limits (-160.0 20.0)
           (-70.0 70.0)
           (-70.0 60.0)
  end
  begin
     id 8 
     name rtibia
     direction -0.34202 -0.939693 0   
     length 7.44924   
     axis 0 0 -20   XYZ
    dof rx
    limits (-10.0 170.0)
 end
 begin
     id 9 
     name rfoot
     direction -0.103614 -0.284677 0.953007   
     length 2.22623  
     axis -90 -7.62852e-016 -20   XYZ
    dof rx rz
    limits (-45.0 90.0)
           (-20.0 70.0)
  end
  begin
     id 10 
     name rtoes
     direction -1.53537e-011 -4.22026e-011 1   
     length 1.11   
     axis -90 -7.62852e-016 -20   XYZ
    dof rx
    limits (-90.0 20.0)
  end
  begin
     id 11 
     name lowerback
     direction -0.0101212 0.99662 -0.0815298   
     length 2.08277   
     axis 0 0 0   XYZ
    dof rx ry rz
    limits (-20.0 45.0)
           (-30.0 30.0)
           (-30.0 30.0)
  end
  begin
     id 12 
     name upperback
     direction 0.024314 0.999591 -0.0150645   
     length 2.08524   
     axis 0 0 0   XYZ
    dof rx ry rz
    limits (-20.0 45.0)
           (-30.0 30.0)
           (-30.0 30.0)
  end
  begin
     id 13 
     name thorax
     direction 0.0285959 0.999323 0.0231357   
     length 2.09645   
     axis 0 0 0   XYZ
    dof rx ry rz
    limits (-20.0 45.0)
           (-30.0 30.0)
           (-30.0 30.0)
  end
  begin
     id 14 
     name lowerneck
     direction -0.065512 0.979301 0.191515   
     length 1.63798   
     axis 0 0 0   XYZ
    dof rx ry rz
    limits (-20.0 45.0)
           (-30.0 30.0)
           (-30.0 30.0)
  end
  begin
     id 15 
     name upperneck
     direction 0.0498479 0.98191 -0.182667   
     length 1.68731   
     axis 0 0 0   XYZ
    dof rx ry rz
    limits (-20.0 45.0)
           (-30.0 30.0)
           (-30.0 30.0)
  end
  begin
     id 16
     name head
     direction 0.0230358 0.996257 -0.0833175  
     length 1.69785  
     axis 0 0 0   XYZ
    dof rx ry rz
    limits (-20.0 45.0)
           (-30.0 30.0)
           (-30.0 30.0)
  end
  begin
     id 17 
     name lclavicle
     direction 0.967963 0.201165 -0.150269  
     length 3.63976  
     axis 0 0 0   XYZ
    dof ry rz
    limits (-20.0 10.0)
           (0.0 20.0)
  end
  begin
     id 18 
     name lhumerus
     direction 1 -4.48954e-011 -2.92837e-028   
     length 5.32462   
     axis 180 -30 -90   XYZ
    dof rx ry rz
    limits (-60.0 90.0)
           (-90.0 90.0)
           (-90.0 90.0)
  end
  begin
     id 19
     name lradius
     direction 1 -4.48958e-011 -6.39511e-027   
     length 3.48402   
     axis 180 -30 -90   XYZ
    dof rx
    limits (-10.0 170.0)
  end
  begin
     id 20
     name lwrist
     direction 1 -4.48975e-011 -1.1413e-026   
     length 1.74201   
     axis 6.88575e-015 90 90   XYZ
    dof ry
    limits (-180.0 0.0)
 end
  begin
     id 21 
     name lhand
     direction 1 -4.48899e-011 -2.28192e-026   
     length 0.572476   
     axis 1.45643e-014 90 90   XYZ
    dof rx rz
    limits (-90.0 90.0)
           (-45.0 45.0)
  end
  begin
     id 22 
     name lfingers
     direction 1 -4.49155e-011 -4.5684e-026   
     length 0.461545   
     axis 2.91283e-014 90 90   XYZ
    dof rx
    limits (0.0 90.0)
  end
  begin
     id 23
     name lthumb
     direction 0.707107 -6.34943e-011 0.707107   
     length 0.662688   
     axis -90 45 -2.25915e-014   XYZ
    dof rx rz
    limits (-45.0 45.0)
           (-45.0 45.0)
  end
  begin
     id 24 
     name rclavicle
     direction -0.964103 0.264019 -0.0282629   
     length 3.54491  
     axis 0 0 0   XYZ 
    dof ry rz
    limits (-10.0 20.0)
           (-20.0 0.0)
  end
  begin
     id 25 
     name rhumerus
     direction -1 -4.48964e-011 -2.45032e-027  
     length 5.33589   
     axis 180 30 90   XYZ
    dof rx ry rz
    limits (-90.0 60.0)
           (-90.0 90.0)
           (-90.0 90.0)
  end
  begin
     id 26 
     name rradius
     direction -1 -4.48987e-011 -1.55093e-027   
     length 3.64134   
     axis 180 30 90   XYZ
    dof rx
    limits (-10.0 170.0)
  end
  begin
     id 27 
     name rwrist
     direction -1 -4.4897e-011 -1.14128e-026   
     length 1.82067   
     axis 6.88575e-015 -90 -90   XYZ
    dof ry
    limits (-180.0 0.0)
  end
  begin
     id 28
     name rhand
     direction -1 -4.49021e-011 -2.28301e-026   
     length 0.734811   
     axis 1.45643e-014 -90 -90   XYZ
    dof rx rz
    limits (-90.0 90.0)
           (-45.0 45.0)
  end
  begin
     id 29
     name rfingers
     direction -1 -4.48862e-011 -4.56319e-026   
     length 0.592424   
     axis 2.91283e-014 -90 -90   XYZ
    dof rx
    limits (0.0 90.0)
  end
  begin
     id 30
     name rthumb
     direction -0.707107 -6.34978e-011 0.707107   
     length 0.850605   
     axis -90 -45 2.25915e-014   XYZ
    dof rx rz
    limits (-45.0 45.0)
           (-45.0 45.0)
  end
:hierarchy
  begin
    root lhipjoint rhipjoint lowerback
    lhipjoint lfemur
    lfemur ltibia
    ltibia lfoot
    lfoot ltoes
    rhipjoint rfemur
    rfemur rtibia
    rtibia rfoot
    rfoot rtoes
    lowerback upperback
    upperback thorax
    thorax lowerneck lclavicle rclavicle
    lowerneck upperneck
    upperneck head
    lclavicle lhumerus
    lhumerus lradius
    lradius lwrist
    lwrist lhand lthumb
    lhand lfingers
    rclavicle rhumerus
    rhumerus rradius
    rradius rwrist
    rwrist rhand rthumb
    rhand rfingers
  end

#!OML:ASF F:\VICON\USERDATA\INSTALL\rory3\rory3.ASF
:FULLY-SPECIFIED
:DEGREES
68
root 6.89255 17.7798 1.6835 -1.87989 -73.1678 10.3231
lowerback 3.15257 -0.915643 -2.22737
upperback 1.51703 -1.30554 3.38718
thorax -0.078923 -0.694474 4.78614
lowerneck -17.2731 -0.32711 -12.8366
upperneck 40.127 2.55702 0.740663
head 17.6755 -1.29598 2.96447
rclavicle -2.54444e-014 7.95139e-015
rhumerus -32.3804 -0.160699 -72.6497
rradius 47.4033
rwrist 17.575
rhand -19.7898 1.47214
rfingers 7.12502
rthumb 6.54278 -28.4068
lclavicle -2.54444e-014 7.95139e-015
lhumerus -32.6936 11.1184 84.1955
lradius 34.0528
lwrist -6.83847
lhand -12.3463 21.6546
lfingers 7.12502
lthumb 13.7233 51.182
rfemur -16.346 0.446703 23.198
rtibia 31.4524
rfoot -21.5629 -2.12526
rtoes 11.7879
lfemur -27.1908 5.46895 -22.2683
ltibia 45.8964
lfoot -11.6275 -0.184722
ltoes -20.0843
69
root 6.88239 17.78 1.68748 -1.87082 -73.2877 10.3667
lowerback 3.17351 -0.855232 -2.14746
upperback 1.6357 -1.22567 3.31613
thorax 0.0199814 -0.657714 4.66333
lowerneck -17.1132 -0.351996 -12.7781
upperneck 40.0616 2.4955 0.657891
head 17.6062 -1.31693 2.90143
rclavicle -8.74653e-015 -4.77083e-015
rhumerus -32.1833 0.0864711 -72.759
rradius 47.7944
rwrist 17.3669
rhand -20.0459 1.30305
rfingers 7.12502
rthumb 6.2955 -28.5834
lclavicle -8.74653e-015 -4.77083e-015
lhumerus -32.6763 10.7369 84.237
lradius 34.3502
lwrist -6.73541
lhand -12.5221 21.642
lfingers 7.12502
lthumb 13.5538 51.1808
rfemur -16.3615 0.621346 23.1806
rtibia 31.4446
rfoot -21.6095 -2.05436
rtoes 12.4693
lfemur -27.6193 5.28882 -22.3305
ltibia 45.7455
lfoot -11.1031 -0.353545
ltoes -21.2539
70
root 6.86936 17.7836 1.6914 -1.89508 -73.4387 10.4512
lowerback 3.1498 -0.804936 -2.14187
upperback 1.77009 -1.1616 3.26739
thorax 0.164043 -0.630567 4.60566
lowerneck -17.005 -0.374386 -12.7736
upperneck 40.0197 2.43736 0.650452
head 17.5601 -1.33621 2.88452
rclavicle 5.52621e-014 6.36111e-015
rhumerus -31.9206 0.178285 -72.8383
rradius 48.1319
rwrist 17.4729
rhand -20.3567 1.49821
rfingers 7.12502
rthumb 5.99549 -28.397
lclavicle 5.52621e-014 6.36111e-015
lhumerus -32.6728 10.5693 84.2252
lradius 34.5934
lwrist -6.81833
lhand -12.6323 21.558
lfingers 7.12502
lthumb 13.4476 51.1039
rfemur -16.3735 0.730479 23.1798
rtibia 31.4306
rfoot -21.5274 -2.0916
rtoes 12.4561
lfemur -28.0406 5.2194 -22.3862
ltibia 45.4754
lfoot -10.5542 -0.578306
ltoes -21.8849
71
root 6.85358 17.7893 1.6977 -1.81882 -73.6473 10.4429
lowerback 3.12966 -0.777855 -2.15882
upperback 1.86658 -1.12897 3.28462
thorax 0.272193 -0.618706 4.63107
lowerneck -16.9646 -0.348274 -12.8459
upperneck 40.102 2.4957 0.627853
head 17.5925 -1.33509 2.89736
rclavicle 5.68524e-014 4.77083e-015
rhumerus -31.6828 0.517996 -72.8975
rradius 48.4562
rwrist 17.5055
rhand -20.5876 1.61863
rfingers 7.12502
rthumb 5.77248 -28.2827
lclavicle 5.68524e-014 4.77083e-015
lhumerus -32.7382 10.4884 84.269
lradius 34.8183
lwrist -6.73382
lhand -12.5939 21.5807
lfingers 7.12502
lthumb 13.4847 51.1241
rfemur -16.3749 0.637049 23.2143
rtibia 31.3796
rfoot -21.3748 -2.02861
rtoes 12.0515
lfemur -28.4266 5.24192 -22.4411
ltibia 45.1203
lfoot -9.86966 -0.86939
ltoes -21.8738
72
root 6.83901 17.7947 1.70439 -1.83952 -73.7896 10.5292
lowerback 3.18246 -0.752228 -2.09655
upperback 1.92946 -1.0949 3.22607
thorax 0.30148 -0.602416 4.5341
lowerneck -16.8932 -0.335425 -12.8283
upperneck 40.1532 2.50024 0.596103
head 17.604 -1.33995 2.87987
rclavicle -3.97569e-016 6.36111e-015
rhumerus -31.5711 0.860683 -73.0086
rradius 48.8313
rwrist 17.4266
rhand -20.8323 1.64124
rfingers 7.12502
rthumb 5.53627 -28.2664
lclavicle -3.97569e-016 6.36111e-015
lhumerus -32.7837 10.305 84.2455
lradius 34.9883
lwrist -6.51143
lhand -12.0939 21.5526
lfingers 7.12502
lthumb 13.9666 51.0634
rfemur -16.3427 0.625285 23.1789
rtibia 31.3019
rfoot -21.3789 -1.90755
rtoes 11.8652
lfemur -28.7766 5.12289 -22.5174
ltibia 44.6877
lfoot -9.11376 -1.22112
ltoes -21.182
73
root 6.82533 17.7964 1.70836 -2.02236 -73.8644 10.7929
lowerback 3.25825 -0.73991 -2.09194
upperback 1.978 -1.07923 3.14012
thorax 0.305592 -0.594653 4.44242
lowerneck -16.6653 -0.286946 -12.8358
upperneck 40.0541 2.51795 0.620964
head 17.4845 -1.32085 2.89165
rclavicle -3.57812e-014 -3.18055e-015
rhumerus -31.4393 1.06178 -73.132
rradius 49.1499
rwrist 17.3943
rhand -20.6777 1.68308
rfingers 7.12502
rthumb 5.68557 -28.2206
lclavicle -3.57812e-014 -3.18055e-015
lhumerus -32.7985 10.3061 84.1083
lradius 35.0585
lwrist -6.41333
lhand -11.4482 21.3525
lfingers 7.12502
lthumb 14.5887 50.8194
rfemur -16.3082 0.792783 23.0711
rtibia 31.2087
rfoot -21.4851 -1.77256
rtoes 12.1776
lfemur -29.1445 4.92539 -22.6085
ltibia 44.201
lfoot -8.65608 -1.29777
ltoes -21.0367
74
root 6.81009 17.7951 1.7123 -2.01403 -73.9497 10.9565
lowerback 3.24572 -0.723498 -2.15159
upperback 1.98306 -1.05826 3.10535
thorax 0.316326 -0.584449 4.43928
lowerneck -16.4323 -0.225269 -12.8911
upperneck 39.9844 2.55146 0.693304
head 17.3773 -1.29843 2.93648
rclavicle 3.93594e-014 -1.11319e-014
rhumerus -31.3391 1.30879 -73.2243
rradius 49.4754
rwrist 17.3559
rhand -20.2458 1.58506
rfingers 7.12502
rthumb 6.10248 -28.3071
lclavicle 3.93594e-014 -1.11319e-014
lhumerus -32.8865 10.1865 84.0495
lradius 35.1351
lwrist -6.34352
lhand -11.095 21.3336
lfingers 7.12502
lthumb 14.929 50.7756
rfemur -16.3847 0.83572 23.0115
rtibia 31.115
rfoot -21.4295 -1.56957
rtoes 12.5523
lfemur -29.6116 4.80436 -22.6888
ltibia 43.639
lfoot -8.49788 -0.987549
ltoes -22.0386
75
root 6.79221 17.7927 1.71837 -1.85404 -74.1011 10.8867
lowerback 3.28116 -0.649646 -2.09242
upperback 2.01783 -0.959367 3.0789
thorax 0.321441 -0.534987 4.37578
lowerneck -16.295 -0.217677 -12.9482
upperneck 39.9966 2.55244 0.690031
head 17.3493 -1.30764 2.94315
rclavicle 3.4191e-014 -2.22639e-014
rhumerus -31.2832 1.51269 -73.255
rradius 49.7979
rwrist 17.4001
rhand -20.2263 1.50919
rfingers 7.12502
rthumb 6.12133 -28.3824
lclavicle 3.4191e-014 -2.22639e-014
lhumerus -32.9653 9.81409 84.1182
lradius 35.2135
lwrist -6.24691
lhand -11.087 21.5004
lfingers 7.12502
lthumb 14.9367 50.9418
rfemur -16.383 0.867457 23.0394
rtibia 31.0225
rfoot -21.3113 -1.40929
rtoes 13.165
lfemur -29.9497 4.66687 -22.7162
ltibia 43.0195
lfoot -8.57838 -0.554132
ltoes -22.2519
76
root 6.77148 17.7919 1.72781 -1.79794 -74.3082 10.8572
lowerback 3.29726 -0.588998 -1.96257
upperback 2.11151 -0.877569 3.01506
thorax 0.39792 -0.495487 4.23294
lowerneck -16.1933 -0.179313 -12.925
upperneck 39.9657 2.60835 0.619611
head 17.3034 -1.28847 2.91504
rclavicle -4.33351e-014 2.06736e-014
rhumerus -31.1555 1.9102 -73.3228
rradius 50.1436
rwrist 17.2653
rhand -20.2717 1.67227
rfingers 7.12502
rthumb 6.07747 -28.2206
lclavicle -4.33351e-014 2.06736e-014
lhumerus -32.9762 9.67157 84.0813
lradius 35.2148
lwrist -6.17786
lhand -11.1328 21.5596
lfingers 7.12502
lthumb 14.8926 51.0043
rfemur -16.3074 0.933674 23.0541
rtibia 30.9563
rfoot -21.2205 -1.31626
rtoes 13.3235
lfemur -30.1306 4.45496 -22.7259
ltibia 42.3163
lfoot -8.84624 -0.131837
ltoes -20.4791
77
root 6.75327 17.7906 1.73521 -1.42314 -74.4432 10.551
lowerback 3.35466 -0.526178 -1.80695
upperback 2.15412 -0.791234 2.96876
thorax 0.398845 -0.451258 4.09465
lowerneck -16.0618 -0.166561 -12.818
upperneck 39.9012 2.59709 0.534704
head 17.2377 -1.28229 2.85322
rclavicle 2.74323e-014 -1.59028e-014
rhumerus -31.062 2.17058 -73.3734
rradius 50.4789
rwrist 17.1571
rhand -20.2164 1.90257
rfingers 7.12502
rthumb 6.13089 -27.9887
lclavicle 2.74323e-014 -1.59028e-014
lhumerus -32.9754 9.51652 84.038
lradius 35.1442
lwrist -6.1581
lhand -11.2319 21.6261
lfingers 7.12502
lthumb 14.7971 51.0778
rfemur -16.2894 0.988594 23.1504
rtibia 30.8952
rfoot -21.2458 -1.21473
rtoes 13.6231
lfemur -30.4007 4.32878 -22.67
ltibia 41.5393
lfoot -8.9869 0.210311
ltoes -18.6645
78
root 6.73567 17.7946 1.74214 -1.24455 -74.4899 10.5261
lowerback 3.38545 -0.469427 -1.82571
upperback 2.15686 -0.716586 2.98976
thorax 0.378698 -0.414072 4.12541
lowerneck -15.9649 -0.219754 -12.8953
upperneck 39.8787 2.53546 0.498362
head 17.2093 -1.32144 2.83721
rclavicle 2.5842e-014 -2.70347e-014
rhumerus -30.9872 2.31555 -73.2981
rradius 50.7684
rwrist 17.2772
rhand -20.4205 1.85914
rfingers 7.12502
rthumb 5.93384 -28.0378
lclavicle 2.5842e-014 -2.70347e-014
lhumerus -32.9493 9.4175 84.1276
lradius 34.9998
lwrist -6.22822
lhand -11.3951 21.6018
lfingers 7.12502
lthumb 14.6398 51.065
rfemur -16.3534 0.916758 23.1635
rtibia 30.8301
rfoot -21.1711 -1.08565
rtoes 14.0743
lfemur -30.7614 4.22707 -22.7432
ltibia 40.6879
lfoot -8.98704 0.594427
ltoes -18.1578
